<svg width="38" height="38" viewBox="0 0 38 38" fill="none" xmlns="http://www.w3.org/2000/svg">
<path d="M7.125 4.04227C7.125 2.97019 6.74967 1.94202 6.08157 1.18395C5.41347 0.425881 4.50733 0 3.5625 0C2.61767 0 1.71153 0.425881 1.04343 1.18395C0.375332 1.94202 0 2.97019 0 4.04227V33.6856C0 34.7576 0.375332 35.7858 1.04343 36.5439C1.71153 37.3019 2.61767 37.7278 3.5625 37.7278C4.50733 37.7278 5.41347 37.3019 6.08157 36.5439C6.74967 35.7858 7.125 34.7576 7.125 33.6856V4.04227ZM9.5 5.99333C14.4091 8.55344 20.2801 9.9844 26.125 10.456V27.2637C25.2623 27.3189 24.4008 27.3953 23.541 27.4928C18.6651 28.0426 13.9508 29.293 9.5 31.6968V5.99333ZM28.5 27.1236V10.6015C30.115 10.6743 31.8226 10.7174 33.269 10.7443C34.5269 10.7641 35.7277 11.3438 36.6126 12.3584C37.4975 13.3731 37.9958 14.7416 38 16.1691V21.5588C38 24.5393 35.872 26.9377 33.2643 26.9727C32.8716 26.9783 32.4789 26.9854 32.0862 26.9943C30.8904 27.0214 29.6949 27.0645 28.5 27.1236ZM25.1988 30.0367C24.5219 30.0933 23.8474 30.1634 23.18 30.2469L22.5791 34.8012C22.5137 35.191 22.525 35.5923 22.6121 35.9765C22.6992 36.3607 22.86 36.7184 23.083 37.024C23.3061 37.3295 23.5858 37.5755 23.9022 37.7442C24.2187 37.9129 24.5641 38.0003 24.9137 38H26.2153C26.6769 38 27.1285 37.8473 27.5149 37.5606C27.9013 37.2739 28.2056 36.8657 28.3907 36.3858L31.5115 29.7026C30.1714 29.7405 28.8318 29.798 27.493 29.875C26.7164 29.9209 25.9493 29.9748 25.1988 30.0367Z" fill="#6972AA"/>
</svg>
