<svg width="20" height="20" viewBox="0 0 20 20" fill="none" xmlns="http://www.w3.org/2000/svg">
<path d="M18.125 3.125V2.5H16.875V3.625L2.875 9.25L8.125 11.875L11.875 19.375L18.375 3L18.125 3.125Z" fill="#E4F5F7"/>
<path d="M6.875 11.25V15.625L9.375 14.375" fill="#BFDADD"/>
<path d="M19.875 0.125C19.625 0 19.375 0 19.125 0L0.375 7.5C0.125 7.625 0 7.875 0 8.125C0 8.375 0.125 8.625 0.375 8.75L6.25 11.625V15.625C6.25 15.875 6.375 16 6.5 16.125C6.625 16.25 6.75 16.25 6.875 16.25C7 16.25 7.125 16.25 7.125 16.125L9.125 15.125L11.375 19.625C11.375 19.875 11.625 20 11.875 20C12.125 20 12.375 19.875 12.375 19.625L14.875 13.375C15 13 14.875 12.75 14.5 12.625C14.125 12.5 13.875 12.625 13.75 13L11.75 18L8.875 12L17.625 3.25L14.625 10.75C14.5 11.125 14.625 11.375 15 11.5C15.375 11.625 15.625 11.5 15.75 11.125L20 0.875C20 0.625 20 0.375 19.875 0.125ZM16.75 2.375L8 11.125L2.125 8.25L16.75 2.375ZM7.5 14.625V12.25L7.625 12.375L8.5 14.125L7.5 14.625Z" fill="#3E3643"/>
</svg>
