<svg width="107" height="85" viewBox="0 0 107 85" fill="none" xmlns="http://www.w3.org/2000/svg">
<path d="M7.2142 85C5.30573 84.9925 3.47798 84.2292 2.13113 82.877C0.784271 81.5249 0.0280616 79.6941 0.0280762 77.7857V15.064C0.083281 13.4808 0.763685 11.984 1.92026 10.9014C3.07683 9.81888 4.6153 9.23881 6.19869 9.28829H12.0943C13.2543 9.31136 14.3976 9.00915 15.3947 8.41588C16.3918 7.8226 17.2028 6.96198 17.736 5.93148L18.9983 3.35744C19.5288 2.33238 20.3343 1.47534 21.3246 0.882428C22.3148 0.289516 23.4507 -0.0158261 24.6048 0.000631862H52.5947C53.6465 -0.0130016 54.6848 0.238232 55.614 0.731187C56.5432 1.22414 57.3335 1.94297 57.912 2.82149L59.2872 5.00059C59.8645 5.87855 60.6536 6.5971 61.5816 7.09006C62.5096 7.58302 63.5467 7.83454 64.5974 7.82145H100.281C101.866 7.77011 103.407 8.3505 104.564 9.43496C105.721 10.5194 106.4 12.0191 106.452 13.6042V77.7786C106.452 79.692 105.692 81.527 104.339 82.8799C102.986 84.2329 101.151 84.9929 99.2375 84.9929L7.2142 85Z" fill="#3E81D0"/>
<g opacity="0.3">
<path opacity="0.3" d="M7.2142 85C5.30573 84.9925 3.47798 84.2292 2.13113 82.877C0.784271 81.5249 0.0280616 79.6941 0.0280762 77.7857V15.064C0.083281 13.4808 0.763685 11.984 1.92026 10.9014C3.07683 9.81888 4.6153 9.23881 6.19869 9.28829H12.0943C13.2543 9.31136 14.3976 9.00915 15.3947 8.41588C16.3918 7.8226 17.2028 6.96198 17.736 5.93148L18.9983 3.35744C19.5288 2.33238 20.3343 1.47534 21.3246 0.882428C22.3148 0.289516 23.4507 -0.0158261 24.6048 0.000631862H52.5947C53.6465 -0.0130016 54.6848 0.238232 55.614 0.731187C56.5432 1.22414 57.3335 1.94297 57.912 2.82149L59.2872 5.00059C59.8645 5.87855 60.6536 6.5971 61.5816 7.09006C62.5096 7.58302 63.5467 7.83454 64.5974 7.82145H100.281C101.866 7.77011 103.407 8.3505 104.564 9.43496C105.721 10.5194 106.4 12.0191 106.452 13.6042V77.7786C106.452 79.692 105.692 81.527 104.339 82.8799C102.986 84.2329 101.151 84.9929 99.2375 84.9929L7.2142 85Z" fill="black"/>
</g>
<path d="M61.015 7.85671L38.3072 7.80735L36.2832 4.0133C35.595 2.78161 34.587 1.75861 33.3656 1.05233C32.1442 0.346049 30.7547 -0.0173065 29.3439 0.000633566H7.15086C3.20167 0.000633566 0 2.99779 0 6.70016V77.3907C0 81.622 3.63889 85 8.12405 85H98.2644C102.757 85 106.388 81.5938 106.388 77.3907V13.0541C106.388 11.6757 105.841 10.3537 104.866 9.37901C103.891 8.4043 102.57 7.85671 101.191 7.85671H61.015Z" fill="#3E81D0"/>
<path d="M72.4607 61.425H62.4114C62.2244 61.425 62.045 61.3507 61.9128 61.2185C61.7805 61.0862 61.7062 60.9068 61.7062 60.7198C61.7062 60.5328 61.7805 60.3534 61.9128 60.2211C62.045 60.0889 62.2244 60.0146 62.4114 60.0146H72.4607C75.0667 60.0197 77.5717 59.0066 79.4414 57.1912C81.3112 55.3759 82.3977 52.9019 82.4695 50.2969C82.5412 47.6918 81.5925 45.1618 79.8255 43.2462C78.0585 41.3307 75.6131 40.1813 73.0108 40.0429C72.8603 40.0356 72.7162 39.9803 72.5994 39.8852C72.4827 39.79 72.3995 39.6599 72.362 39.514C71.6196 36.6471 70.0945 34.0432 67.9571 31.9933C65.8197 29.9435 63.1543 28.5285 60.2589 27.9065C57.3635 27.2845 54.3522 27.4801 51.5615 28.4714C48.7709 29.4627 46.3109 31.2106 44.4567 33.5197C44.3812 33.6147 44.2825 33.6887 44.1701 33.7344C44.0576 33.7801 43.9353 33.796 43.8149 33.7806C43.3098 33.7154 42.801 33.6824 42.2917 33.6819C38.8534 33.7615 35.5828 35.1832 33.1793 37.6431C30.7757 40.1029 29.43 43.4056 29.43 46.8447C29.43 50.2839 30.7757 53.5865 33.1793 56.0464C35.5828 58.5062 38.8534 59.9279 42.2917 60.0075H50.4369C50.6239 60.0075 50.8033 60.0818 50.9356 60.2141C51.0678 60.3463 51.1421 60.5257 51.1421 60.7127C51.1421 60.8998 51.0678 61.0791 50.9356 61.2114C50.8033 61.3437 50.6239 61.418 50.4369 61.418H42.2564C38.3886 61.418 34.6791 59.8815 31.9441 57.1465C29.2091 54.4115 27.6726 50.702 27.6726 46.8341C27.6726 42.9663 29.2091 39.2568 31.9441 36.5218C34.6791 33.7868 38.3886 32.2503 42.2564 32.2503C42.6899 32.2505 43.1231 32.2741 43.554 32.3209C45.5793 29.9003 48.2251 28.0765 51.2078 27.045C54.1905 26.0134 57.3978 25.813 60.4857 26.4653C63.5736 27.1175 66.4258 28.5977 68.7367 30.7474C71.0475 32.897 72.7297 35.635 73.6031 38.6678C76.5325 38.9403 79.2435 40.3337 81.17 42.5572C83.0966 44.7808 84.0898 47.6625 83.9424 50.6008C83.795 53.5392 82.5183 56.307 80.3789 58.3265C78.2395 60.3461 75.4027 61.4612 72.4607 61.4391V61.425Z" fill="white"/>
<path d="M56.2125 67.8563C56.0255 67.8563 55.8461 67.782 55.7139 67.6498C55.5816 67.5175 55.5073 67.3381 55.5073 67.1511V48.8156C55.5073 48.6285 55.5816 48.4492 55.7139 48.3169C55.8461 48.1847 56.0255 48.1104 56.2125 48.1104C56.3996 48.1104 56.5789 48.1847 56.7112 48.3169C56.8435 48.4492 56.9178 48.6285 56.9178 48.8156V67.1511C56.9178 67.3381 56.8435 67.5175 56.7112 67.6498C56.5789 67.782 56.3996 67.8563 56.2125 67.8563Z" fill="white"/>
<path d="M61.5721 56.1144C61.4615 56.1155 61.3521 56.0905 61.2528 56.0415C61.1536 55.9925 61.0673 55.9209 61.0009 55.8323L56.3324 49.57C56.3152 49.5494 56.2936 49.533 56.2692 49.522C56.2448 49.511 56.2181 49.5057 56.1913 49.5066C56.1658 49.5072 56.1407 49.5132 56.1176 49.5242C56.0946 49.5351 56.074 49.5507 56.0574 49.57L51.1209 55.656C51.0021 55.8028 50.8299 55.8965 50.6421 55.9163C50.4543 55.9361 50.2663 55.8806 50.1195 55.7618C49.9726 55.643 49.879 55.4708 49.8592 55.283C49.8393 55.0952 49.8949 54.9072 50.0137 54.7604L54.9502 48.6744C55.1054 48.4886 55.2995 48.3392 55.5189 48.2368C55.7383 48.1345 55.9775 48.0816 56.2195 48.082C56.4605 48.0855 56.6975 48.1439 56.9126 48.2526C57.1276 48.3614 57.3151 48.5177 57.4607 48.7097L62.1433 54.979C62.1996 55.0538 62.2405 55.1389 62.2636 55.2296C62.2866 55.3203 62.2914 55.4147 62.2776 55.5072C62.2638 55.5998 62.2317 55.6886 62.1833 55.7687C62.1348 55.8487 62.0709 55.9183 61.9952 55.9734C61.8732 56.0649 61.7247 56.1144 61.5721 56.1144Z" fill="white"/>
</svg>
