<svg xmlns="http://www.w3.org/2000/svg" viewBox="0 0 500 500"><g id="freepik--Folder--inject-38"><path d="M176.19,275.31A10.23,10.23,0,0,1,166,265.08V176.14a8.49,8.49,0,0,1,8.75-8.19h8.36a8.81,8.81,0,0,0,8-4.76l1.79-3.65a8.81,8.81,0,0,1,7.95-4.76h39.69a8.89,8.89,0,0,1,7.54,4l1.95,3.09a8.88,8.88,0,0,0,7.53,4h50.6a8.48,8.48,0,0,1,8.75,8.2v91a10.23,10.23,0,0,1-10.23,10.23Z" style="fill:#FF725E"></path><g style="opacity:0.30000000000000004"><path d="M176.19,275.31A10.23,10.23,0,0,1,166,265.08V176.14a8.49,8.49,0,0,1,8.75-8.19h8.36a8.81,8.81,0,0,0,8-4.76l1.79-3.65a8.81,8.81,0,0,1,7.95-4.76h39.69a8.89,8.89,0,0,1,7.54,4l1.95,3.09a8.88,8.88,0,0,0,7.53,4h50.6a8.48,8.48,0,0,1,8.75,8.2v91a10.23,10.23,0,0,1-10.23,10.23Z"></path></g><path d="M252.48,165.92l-32.2-.07-2.87-5.38a11.11,11.11,0,0,0-9.84-5.69H176.1c-5.6,0-10.14,4.25-10.14,9.5V264.52c0,6,5.16,10.79,11.52,10.79H305.3c6.37,0,11.52-4.83,11.52-10.79V173.29a7.37,7.37,0,0,0-7.37-7.37Z" style="fill:#FF725E"></path><path d="M268.71,241.88H254.46a1,1,0,0,1,0-2h14.25a14.17,14.17,0,0,0,.78-28.32,1,1,0,0,1-.92-.75A22.64,22.64,0,0,0,229,202.31a1,1,0,0,1-.91.37,17,17,0,0,0-2.16-.14,18.67,18.67,0,0,0,0,37.33h11.55a1,1,0,1,1,0,2H225.88a20.68,20.68,0,1,1,0-41.36,17.12,17.12,0,0,1,1.84.1,24.66,24.66,0,0,1,42.61,9,16.18,16.18,0,0,1-1.62,32.29Z" style="fill:#fff"></path><path d="M245.67,251a1,1,0,0,1-1-1V224a1,1,0,1,1,2,0v26A1,1,0,0,1,245.67,251Z" style="fill:#fff"></path><path d="M253.27,234.35a1,1,0,0,1-.81-.4l-6.62-8.88a.25.25,0,0,0-.2-.09.26.26,0,0,0-.19.09l-7,8.63a1,1,0,1,1-1.57-1.27l7-8.63a2.34,2.34,0,0,1,1.8-.84,2.25,2.25,0,0,1,1.76.89l6.64,8.89a1,1,0,0,1-.21,1.41A1,1,0,0,1,253.27,234.35Z" style="fill:#fff"></path></g></svg>